<?xml version="1.0" encoding="UTF-8" standalone="no"?>
<!-- Created with Inkscape (http://www.inkscape.org/) -->

<svg
   xmlns:dc="http://purl.org/dc/elements/1.1/"
   xmlns:cc="http://creativecommons.org/ns#"
   xmlns:rdf="http://www.w3.org/1999/02/22-rdf-syntax-ns#"
   xmlns:svg="http://www.w3.org/2000/svg"
   xmlns="http://www.w3.org/2000/svg"
   xmlns:sodipodi="http://sodipodi.sourceforge.net/DTD/sodipodi-0.dtd"
   xmlns:inkscape="http://www.inkscape.org/namespaces/inkscape"
   width="170"
   height="35"
   id="svg3154"
   version="1.1"
   inkscape:version="0.48.4 r9939"
   sodipodi:docname="New document 2">
  <defs
     id="defs3156" />
  <sodipodi:namedview
     id="base"
     pagecolor="#ffffff"
     bordercolor="#666666"
     borderopacity="1.0"
     inkscape:pageopacity="0.0"
     inkscape:pageshadow="2"
     inkscape:zoom="3.959798"
     inkscape:cx="118.75117"
     inkscape:cy="10.633714"
     inkscape:document-units="px"
     inkscape:current-layer="layer1"
     showgrid="false"
     inkscape:window-width="1366"
     inkscape:window-height="711"
     inkscape:window-x="-4"
     inkscape:window-y="-4"
     inkscape:window-maximized="1" />
  <metadata
     id="metadata3159">
    <rdf:RDF>
      <cc:Work
         rdf:about="">
        <dc:format>image/svg+xml</dc:format>
        <dc:type
           rdf:resource="http://purl.org/dc/dcmitype/StillImage" />
        <dc:title></dc:title>
      </cc:Work>
    </rdf:RDF>
  </metadata>
  <g
     inkscape:label="Layer 1"
     inkscape:groupmode="layer"
     id="layer1"
     transform="translate(0,-1017.3622)">
    <g
       id="g3183"
       transform="matrix(0.50179211,0,0,0.50179211,-103.45955,767.72706)">
      <path
         inkscape:export-ydpi="38.709675"
         inkscape:export-xdpi="38.709675"
         inkscape:export-filename="/home/bajlo/Documents/www/www-tvorba/dragosek.com/bajlo/images/logo.png"
         transform="translate(-1160.3676,-789.91902)"
         d="m 1622.875,1287.4062 c -4.862,0 -8.9062,3.8401 -8.9062,8.625 0,4.3828 3.4423,7.8325 7.75,8.4063 l -2.5938,0 -0.125,0 a 1.8523056,1.8523056 0 0 0 -0.1875,0 c -1.66,0.1697 -2.8125,1.458 -2.8125,3.125 l 0,31.4687 c 0,1.8237 -0.4487,2.9803 -1.4688,4.125 a 1.8523056,1.8523056 0 0 0 -0.031,0 c -1.0676,1.2235 -1.658,1.4687 -2.625,1.4688 l -0.4375,0 c -1.7964,0 -3.1157,1.3408 -3.125,3.125 l 0,6.2812 c 0,1.7966 1.3286,3.125 3.125,3.125 l 0.4375,0 c 4.8698,0 9.27,-1.8635 12.5938,-5.4062 3.3119,-3.4923 5.0937,-7.8995 5.0937,-12.7188 l 0,-31.4687 c 0,-1.7969 -1.3397,-3.1162 -3.125,-3.125 l -2.4063,0 c 4.3077,-0.5738 7.75,-4.0235 7.75,-8.4063 0,-4.7849 -4.0442,-8.625 -8.9062,-8.625 z m 72.4062,0.5313 c -4.8619,0 -8.875,3.8503 -8.875,8.625 0,3.581 2.2554,6.6597 5.4376,7.9687 l -0.4688,0 -0.125,0 a 1.8523056,1.8523056 0 0 0 -0.1875,0 c -1.6601,0.1695 -2.8128,1.4581 -2.8125,3.125 l 0,43.125 c 0,1.7964 1.3405,3.116 3.125,3.125 l 7.25,0 a 1.8523056,1.8523056 0 0 0 0.8125,-0.1874 c 0,0 0.4502,-0.2022 0.9375,-0.5626 0.4873,-0.3603 1.3676,-0.8652 1.375,-2.375 l 0,-43.125 c 0,-1.7857 -1.3253,-3.1002 -3.0938,-3.125 3.2204,-1.2936 5.5313,-4.359 5.5313,-7.9687 0,-4.7849 -4.044,-8.625 -8.9063,-8.625 z m -113.1874,12.0313 c -4.6952,0 -9.1579,1.2755 -13.125,3.7812 -3.9289,2.4814 -7.0493,5.8479 -9.2813,9.9688 -2.2348,4.091 -3.375,8.5894 -3.375,13.3437 0,4.584 1.0954,8.9229 3.0937,12.9063 a 1.8523056,1.8523056 0 0 0 0,0.031 1.8523056,1.8523056 0 0 0 0.1876,0.4688 1.8523056,1.8523056 0 0 0 0,0.031 c 2.1982,4.0873 5.2739,7.4471 9.1874,9.9062 3.9504,2.4821 8.4193,3.7188 13.125,3.7188 1.243,0 2.5237,-0.045 3.8438,-0.2188 1.494,-0.1915 3.0977,-0.6262 4.875,-1.2187 1.8715,-0.6239 3.6314,-1.4425 5.3125,-2.4375 1.7902,-1.0594 3.5207,-2.4585 5.25,-4.1875 1.799,-1.8337 3.3998,-3.9788 4.7187,-6.3125 a 1.8523056,1.8523056 0 0 0 0,-0.031 c 0.8605,-1.5923 0.317,-3.4046 -1.2812,-4.25 l -6.25,-3.3438 a 1.8523056,1.8523056 0 0 0 -0.031,-0.031 c -1.5108,-0.7802 -3.2018,-0.2929 -4.0938,1.1562 a 1.8523056,1.8523056 0 0 0 -0.031,0.031 c -1.5159,2.5611 -3.2738,4.3617 -5.3126,5.625 A 1.8523056,1.8523056 0 0 0 1588.75,1339 c -2.1675,1.2749 -4.3571,1.9063 -6.8438,1.9062 -3.0721,1e-4 -5.543,-1.0393 -8.0312,-3.4687 -1.6213,-1.6045 -2.5638,-3.5379 -3.2188,-5.6875 l 34.0938,0 c 1.8581,0 3.2052,-1.4346 3.125,-3.2812 l -0.1562,-3.4063 c 6e-4,-0.034 9e-4,-0.05 0,-0.094 a 1.8523056,1.8523056 0 0 0 0,-0.031 1.8523056,1.8523056 0 0 0 0,-0.094 c -0.3757,-4.44 -1.7488,-8.5862 -4,-12.3126 -0,-0.01 0,-0.024 0,-0.031 l -0.031,0 c -2.2706,-3.7708 -5.3386,-6.8545 -9.0937,-9.0938 -3.7954,-2.2632 -8.01,-3.4374 -12.5,-3.4374 z m -36.3126,0.1874 c -0.1783,0.019 -0.4102,0.063 -0.6874,0.1563 a 1.8523056,1.8523056 0 0 0 -0.031,0 c -2.9596,1.0509 -5.5375,2.8045 -7.9687,4.7813 -0.1606,-0.6793 -0.1926,-1.3532 -0.4376,-2.0313 -0.4704,-1.2818 -1.6027,-2.0737 -2.9687,-2.0625 l -8,0 -0.031,0 c -1.2021,-0 -2.1209,0.6815 -2.625,1.5 -0.5086,0.826 -0.7415,1.9813 -0.1874,3.0625 0.089,0.1741 0.7167,2.2132 1.0937,4.9687 a 1.8523056,1.8523056 0 0 0 0,0.031 c 0.4134,2.8042 0.6563,5.2642 0.6563,7.3437 l 0,34.625 c 0,1.797 1.3403,3.116 3.125,3.125 l 7.1562,0 c 1.7969,0 3.1165,-1.3394 3.125,-3.125 l 0,-25.6874 c 0,-0.4935 0.043,-1.0202 0.094,-1.625 0,-0.023 -0,-0.039 0,-0.063 0.064,-0.4631 0.2292,-1.2798 0.5,-2.3124 a 1.8523056,1.8523056 0 0 0 0.062,-0.1876 c 0.2755,-0.93 0.6057,-1.7739 1,-2.5624 0.3571,-0.7143 0.9637,-1.6046 1.8438,-2.5626 0.8009,-0.8714 1.7606,-1.6191 2.9062,-2.2812 a 1.8523056,1.8523056 0 0 0 0.125,-0.094 c 0.01,-0 0.025,0 0.031,0 1.004,-0.5813 2.4314,-1.1444 4.2813,-1.5937 a 1.8523056,1.8523056 0 0 0 0.031,-0.031 c 1.8263,-0.4696 3.9385,-0.7163 6.3438,-0.7187 0.011,2e-4 0.02,-10e-5 0.031,0 1.4527,0.016 2.5672,-0.8347 3,-2.1875 0.4369,-1.3645 -0.049,-2.7382 -1.1875,-3.5312 l -9.125,-6.4063 c -0.6225,-0.4282 -1.3736,-0.6092 -2.125,-0.5313 -0.01,0 -0.021,-0 -0.031,0 z m 116.5,0.1876 c -3.2177,0 -7.3677,1.1026 -10.5312,3.4374 -0.8343,0.6159 -1.4551,1.3739 -2.1875,2.0626 -0.1991,-0.8517 -0.3106,-1.6392 -0.625,-2.6563 -0.4169,-1.3449 -1.5605,-2.1755 -2.9687,-2.1875 a 1.8523056,1.8523056 0 0 0 -0.031,0 l -8.0937,0 -0.031,0 c -1.2373,-0 -2.1945,0.7442 -2.6875,1.5938 -0.4974,0.857 -0.6631,2.0438 -0.031,3.125 0.032,0.055 0.7205,1.9808 1.0624,4.6874 a 1.8523056,1.8523056 0 0 0 0,0.063 c 0.3821,2.7634 0.5938,5.2615 0.5938,7.4374 l 0,32.875 c 0,1.7964 1.3405,3.116 3.125,3.125 l 7.25,0 c 1.7968,0 3.1167,-1.3393 3.125,-3.125 l 0,-23.3437 c 0,-1.5204 0.1097,-3.6364 1.2188,-5.7813 1.1612,-2.2707 2.9354,-4.2673 4.9374,-5.8124 a 1.8523056,1.8523056 0 0 0 0.1563,-0.125 c 1.6787,-1.5855 3.3792,-1.974 5.1563,-1.9063 0.013,6e-4 0.018,-7e-4 0.031,0 3.1778,0.1559 4.4347,0.7564 5.6875,2.4063 0.4876,0.9719 0.9027,1.7859 1.125,2.625 a 1.8523056,1.8523056 0 0 0 0,0.062 c 0.2223,1.0375 0.3437,2.1904 0.3437,3.4063 l 0,28.6875 c 0,1.7964 1.341,3.1157 3.125,3.125 l 7.3126,0 c 1.7963,0 3.1162,-1.3403 3.125,-3.125 l 0,-28.6875 c 0,-2.7745 -0.3397,-5.4164 -1.0313,-7.9063 -0.6964,-2.5419 -1.749,-4.8827 -3.1875,-6.9687 -1.5063,-2.184 -3.5305,-3.9785 -6,-5.2187 a 1.8523056,1.8523056 0 0 0 -0.031,0 c -0.046,-0.024 -0.1093,-0.039 -0.1563,-0.063 a 1.8523056,1.8523056 0 0 0 -0.3437,-0.094 1.8523056,1.8523056 0 0 0 -0.1876,-0.031 c -2.791,-1.2221 -6.4731,-1.6874 -9.25,-1.6874 z M 1421.6562,1301 c -0.2392,0 -0.6424,-0.042 -1.1874,0.1562 -0.5451,0.1982 -1.1372,0.7331 -1.4376,1.2813 a 1.8523056,1.8523056 0 0 0 -0.1874,0.4375 c -0.2062,0.8306 -0.2319,1.745 0.062,2.75 a 1.8523056,1.8523056 0 0 0 0.094,0.2188 l 21.6875,49.4374 a 1.8523056,1.8523056 0 0 0 0.031,0.094 c 0.6013,1.1867 1.81,1.6393 2.8437,1.625 1.0337,-0.014 2.2429,-0.5171 2.8125,-1.7188 L 1468.75,1306.5 a 1.8523056,1.8523056 0 0 0 0,-0.031 c 0.4736,-1.0621 0.2555,-2.1451 -0.25,-2.9376 -0.5055,-0.7924 -1.3995,-1.451 -2.5625,-1.4687 a 1.8523056,1.8523056 0 0 0 -0.031,0 l -7.8437,0 c -1.2294,-0 -2.2697,0.6481 -2.8125,1.75 a 1.8523056,1.8523056 0 0 0 -0.031,0.031 l -11.8126,24.8437 -11.125,-25.8437 a 1.8523056,1.8523056 0 0 0 -0.031,-0.094 c -0.5427,-1.1019 -1.5832,-1.7515 -2.8125,-1.75 l -7.7813,0 z m 71,1.5938 c -4.695,0 -9.1576,1.2755 -13.125,3.7812 -3.9285,2.4814 -7.0491,5.848 -9.2812,9.9688 -2.2413,4.1033 -3.3438,8.6048 -3.3438,13.3437 0,4.5592 1.0703,8.888 3.0626,12.875 a 1.8523056,1.8523056 0 0 0 0.062,0.25 1.8523056,1.8523056 0 0 0 0.125,0.2813 1.8523056,1.8523056 0 0 0 0,0.031 c 2.2048,4.0994 5.3126,7.4519 9.2188,9.9062 3.9435,2.4777 8.3872,3.7188 13.0938,3.7188 1.2417,0 2.5465,-0.044 3.875,-0.2188 1.5013,-0.1923 3.0776,-0.63 4.8437,-1.2187 1.8596,-0.62 3.6466,-1.4331 5.3437,-2.4375 1.7901,-1.0595 3.5208,-2.4585 5.25,-4.1875 1.7992,-1.8339 3.3997,-3.9793 4.7188,-6.3125 a 1.8523056,1.8523056 0 0 0 0,-0.031 c 0.8582,-1.5912 0.3178,-3.4048 -1.2812,-4.25 l -6.25,-3.3438 a 1.8523056,1.8523056 0 0 0 -0.031,-0.031 c -1.5109,-0.7804 -3.2016,-0.2928 -4.0937,1.1562 a 1.8523056,1.8523056 0 0 0 -0.031,0.031 c -1.5158,2.561 -3.2735,4.3615 -5.3125,5.625 a 1.8523056,1.8523056 0 0 0 -0.1562,0.094 c -2.1573,1.2688 -4.3897,1.9063 -6.875,1.9062 -3.0735,1e-4 -5.5035,-1.0311 -8,-3.4687 -1.6214,-1.6046 -2.5639,-3.5379 -3.2188,-5.6875 l 34.0938,0 c 1.8581,0 3.2055,-1.4341 3.125,-3.2812 l -0.1876,-3.4063 c 3e-4,-0.023 3e-4,-0.068 0,-0.094 a 1.8523056,1.8523056 0 0 0 0,-0.031 1.8523056,1.8523056 0 0 0 0,-0.094 c -0.3743,-4.4238 -1.7102,-8.574 -3.9687,-12.3126 -0,-0.01 0,-0.024 0,-0.031 l -0.031,0 c -2.2706,-3.7708 -5.3385,-6.8545 -9.0937,-9.0938 -3.8021,-2.2672 -8.0413,-3.4374 -12.5313,-3.4374 z m -116.6874,0.6562 c -1.2668,0.1261 -2.2551,0.9171 -2.6563,2.125 l -2.375,6.9375 a 1.8523056,1.8523056 0 0 0 0,0.031 c -0.6842,2.0947 0.7655,4.0842 2.9687,4.0937 l 19.25,0 -26.0624,34.9687 a 1.8523056,1.8523056 0 0 0 0,0.031 c -0.7459,1.0544 -0.6462,2.2845 -0.1876,3.1875 0.4587,0.903 1.3961,1.73 2.6876,1.75 a 1.8523056,1.8523056 0 0 0 0.031,0 l 57.6875,0 c 0.6912,-3e-4 1.3456,-0.1202 2.0313,-0.6875 0.6856,-0.5673 1.1351,-1.9608 0.7812,-2.9687 a 1.8523056,1.8523056 0 0 0 -0.031,-0.031 l -2.6876,-6.9687 c -0.01,-0.02 -0.024,-0.043 -0.031,-0.063 -0.1845,-0.524 -0.4344,-1.0914 -0.9688,-1.5937 -0.5542,-0.5211 -1.3719,-0.8045 -2.0624,-0.8437 a 1.8523056,1.8523056 0 0 0 -0.094,0 l -34.6562,0 26.25,-34.875 a 1.8523056,1.8523056 0 0 0 0.3437,-0.75 c 0.125,-0.6321 0.2659,-1.5852 -0.094,-2.625 a 1.8523056,1.8523056 0 0 0 -0.2813,-0.5313 c -0.5852,-0.7566 -1.5303,-1.1748 -2.4063,-1.1875 a 1.8523056,1.8523056 0 0 0 -0.031,0 l -37.0938,0 -0.125,0 a 1.8523056,1.8523056 0 0 0 -0.1874,0 z m 206.125,9.9688 c 2.6356,0 4.8186,0.777 7.0312,2.5624 1.025,0.8177 1.8116,1.827 2.5,2.9376 l -19.0625,0 c 0.7143,-1.1098 1.5182,-2.1203 2.5313,-2.9376 2.2517,-1.7963 4.4373,-2.5624 7,-2.5624 z m -89.4376,2.625 c 2.6359,0 4.8185,0.7769 7.0313,2.5624 1.0204,0.8141 1.8079,1.8392 2.5,2.9376 l -19.0313,0 c 0.7143,-1.1098 1.5184,-2.1204 2.5313,-2.9376 2.2617,-1.8044 4.4051,-2.5624 6.9687,-2.5624 z"
         id="path4271"
         style="color:#000000;fill:#000000;fill-opacity:1;fill-rule:nonzero;stroke:none;stroke-width:0.514;marker:none;visibility:visible;display:inline;overflow:visible;enable-background:accumulate"
         inkscape:original="M 1622.875 1289.25 C 1618.9757 1289.25 1615.8125 1292.2903 1615.8125 1296.0312 C 1615.8125 1299.7722 1618.9757 1302.8125 1622.875 1302.8125 C 1626.7743 1302.8125 1629.9375 1299.7722 1629.9375 1296.0312 C 1629.9375 1292.2903 1626.7743 1289.25 1622.875 1289.25 z M 1695.2812 1289.7812 C 1691.3821 1289.7812 1688.25 1292.8216 1688.25 1296.5625 C 1688.25 1300.3034 1691.382 1303.3438 1695.2812 1303.3438 C 1699.1807 1303.3438 1702.3438 1300.3034 1702.3438 1296.5625 C 1702.3438 1292.8216 1699.1807 1289.7812 1695.2812 1289.7812 z M 1582.0938 1301.8125 C 1577.7308 1301.8125 1573.6518 1302.9863 1569.9688 1305.3125 C 1566.2997 1307.6298 1563.4012 1310.7375 1561.3125 1314.5938 C 1559.223 1318.4189 1558.1562 1322.6036 1558.1562 1327.0625 C 1558.1562 1331.544 1559.1956 1335.74 1561.2188 1339.5938 L 1561.2188 1339.625 C 1563.2758 1343.4496 1566.1363 1346.5534 1569.7812 1348.8438 C 1573.4394 1351.1423 1577.5211 1352.2812 1581.9062 1352.2812 C 1583.0885 1352.2812 1584.276 1352.2231 1585.5 1352.0625 C 1586.8164 1351.8937 1588.3253 1351.5062 1590.0312 1350.9375 C 1591.771 1350.3575 1593.4236 1349.5892 1595 1348.6562 C 1596.6209 1347.697 1598.227 1346.3978 1599.875 1344.75 C 1601.5522 1343.0404 1603.037 1341.0453 1604.2812 1338.8438 C 1604.6036 1338.2472 1604.3491 1337.4107 1603.75 1337.0938 L 1597.5 1333.75 C 1596.9295 1333.4554 1596.1492 1333.6718 1595.8125 1334.2188 C 1594.1269 1337.0665 1592.0875 1339.185 1589.6875 1340.625 L 1589.6875 1340.5938 C 1587.2688 1342.0165 1584.7153 1342.7501 1581.9062 1342.75 C 1578.3756 1342.7501 1575.3329 1341.4635 1572.5625 1338.75 C 1570.1274 1336.3401 1568.7048 1333.4047 1568.1562 1329.9062 L 1604.75 1329.9062 C 1605.4412 1329.9062 1606.0612 1329.253 1606.0312 1328.5625 L 1605.875 1325.0312 C 1605.8752 1325.0203 1605.8752 1325.009 1605.875 1325 C 1605.5221 1320.8291 1604.2434 1316.9675 1602.125 1313.4688 C 1600.0014 1309.9294 1597.1689 1307.0947 1593.6562 1305 C 1590.1321 1302.8985 1586.2622 1301.8125 1582.0938 1301.8125 z M 1546 1302 C 1545.894 1302.011 1545.7884 1302.0285 1545.6875 1302.0625 C 1542.0662 1303.3484 1538.8704 1305.6216 1535.9375 1308.4062 C 1535.7465 1306.79 1535.4564 1305.2109 1534.9062 1303.6875 C 1534.7248 1303.1933 1534.2139 1302.8395 1533.6875 1302.8438 L 1525.6562 1302.8438 C 1524.7752 1302.8328 1524.0982 1303.9347 1524.5 1304.7188 C 1524.887 1305.4715 1525.3906 1307.4263 1525.7812 1310.2812 C 1526.2033 1313.1446 1526.4375 1315.6958 1526.4375 1317.9062 L 1526.4375 1352.5312 C 1526.4375 1353.2012 1527.049 1353.8091 1527.7188 1353.8125 L 1534.875 1353.8125 C 1535.5448 1353.8125 1536.153 1353.2011 1536.1562 1352.5312 L 1536.1562 1326.8438 C 1536.1562 1326.2543 1536.193 1325.6615 1536.25 1325 C 1536.251 1324.989 1536.25 1324.9807 1536.25 1324.9688 C 1536.33 1324.3584 1536.5247 1323.4726 1536.8125 1322.375 L 1536.8125 1322.3438 C 1537.1277 1321.2327 1537.5222 1320.2054 1538 1319.25 C 1538.4528 1318.3442 1539.1497 1317.3428 1540.125 1316.2812 C 1541.0721 1315.2506 1542.1918 1314.3942 1543.4688 1313.6562 C 1543.4688 1313.6453 1543.4688 1313.634 1543.4688 1313.625 C 1544.6999 1312.8864 1546.3576 1312.2476 1548.4062 1311.75 C 1550.4215 1311.2318 1552.7027 1310.9688 1555.25 1310.9688 C 1555.7957 1310.9797 1556.3337 1310.5823 1556.5 1310.0625 C 1556.6664 1309.5428 1556.4486 1308.9374 1556 1308.625 L 1546.875 1302.2188 C 1546.6219 1302.0447 1546.3052 1301.9654 1546 1302 z M 1662.2812 1302.1875 C 1659.5535 1302.1875 1655.5687 1303.2701 1652.8438 1305.2812 C 1651.1142 1306.5579 1649.6223 1308.0555 1648.25 1309.6562 C 1648.216 1309.1701 1648.2375 1308.3756 1648.1875 1308 L 1648.1875 1307.9688 C 1648.0466 1306.8269 1647.6849 1305.4606 1647.1562 1303.75 C 1646.9959 1303.2329 1646.4789 1302.8484 1645.9375 1302.8438 L 1637.8125 1302.8438 C 1636.907 1302.8328 1636.2306 1303.9994 1636.6875 1304.7812 C 1637.0942 1305.4726 1637.6414 1307.3491 1638 1310.1875 C 1637.9998 1310.1985 1637.9998 1310.2097 1638 1310.2188 C 1638.391 1313.0472 1638.5938 1315.6207 1638.5938 1317.9062 L 1638.5938 1350.7812 C 1638.5938 1351.4512 1639.205 1352.0591 1639.875 1352.0625 L 1647.125 1352.0625 C 1647.7949 1352.0625 1648.4031 1351.4511 1648.4062 1350.7812 L 1648.4062 1327.4375 C 1648.4062 1325.8494 1648.4933 1323.3638 1649.8125 1320.8125 C 1651.122 1318.2519 1653.0925 1316.0642 1655.2812 1314.375 C 1657.3464 1312.4246 1659.6587 1311.8804 1661.8125 1311.9688 C 1665.3568 1312.1378 1667.4153 1313.0577 1669 1315.1875 C 1669.5523 1316.2846 1670.078 1317.3139 1670.375 1318.5 C 1670.3749 1318.511 1670.3749 1318.5203 1670.375 1318.5312 C 1670.6288 1319.7155 1670.75 1320.984 1670.75 1322.3125 L 1670.75 1351 C 1670.75 1351.67 1671.3612 1352.2777 1672.0312 1352.2812 L 1679.3438 1352.2812 C 1680.0138 1352.2812 1680.6217 1351.67 1680.625 1351 L 1680.625 1322.3125 C 1680.625 1319.691 1680.3001 1317.2244 1679.6562 1314.9062 C 1679.0101 1312.5477 1678.0326 1310.4052 1676.7188 1308.5 C 1675.3815 1306.561 1673.5986 1304.9761 1671.4062 1303.875 L 1671.375 1303.875 C 1669.1607 1302.7401 1665.0161 1302.1875 1662.2812 1302.1875 z M 1421.6562 1302.8438 C 1421.2604 1302.8438 1420.8985 1302.8703 1420.6562 1303.3125 C 1420.5331 1303.8084 1420.5108 1304.4905 1420.6875 1305.0938 L 1442.375 1354.5312 C 1442.8078 1355.3853 1444.2778 1355.3643 1444.6875 1354.5 L 1467.0625 1305.7188 C 1467.4079 1304.9443 1466.7539 1303.9191 1465.9062 1303.9062 L 1458.0625 1303.9062 C 1457.5844 1303.9057 1457.1175 1304.1961 1456.9062 1304.625 L 1443.3438 1333.1562 L 1430.5938 1303.5625 C 1430.3825 1303.1335 1429.9157 1302.8432 1429.4375 1302.8438 L 1421.6562 1302.8438 z M 1492.6562 1304.4375 C 1488.2933 1304.4375 1484.2144 1305.6113 1480.5312 1307.9375 C 1476.8624 1310.2548 1473.9638 1313.3626 1471.875 1317.2188 C 1469.7829 1321.049 1468.75 1325.235 1468.75 1329.6875 C 1468.75 1334.1629 1469.7554 1338.3601 1471.7812 1342.2188 C 1471.7811 1342.2297 1471.7811 1342.239 1471.7812 1342.25 C 1473.8409 1346.0797 1476.733 1349.1804 1480.375 1351.4688 C 1484.0302 1353.7653 1488.0835 1354.9062 1492.4688 1354.9062 C 1493.6511 1354.9062 1494.8668 1354.8493 1496.0938 1354.6875 C 1497.4131 1354.5185 1498.8923 1354.1297 1500.5938 1353.5625 C 1502.3287 1352.9841 1504.0106 1352.2181 1505.5938 1351.2812 C 1507.2146 1350.3219 1508.8208 1349.0227 1510.4688 1347.375 C 1512.146 1345.6654 1513.6305 1343.6701 1514.875 1341.4688 C 1515.1969 1340.872 1514.9431 1340.0356 1514.3438 1339.7188 L 1508.0938 1336.375 C 1507.5234 1336.0804 1506.743 1336.2968 1506.4062 1336.8438 C 1504.7207 1339.6915 1502.6813 1341.8098 1500.2812 1343.25 L 1500.2812 1343.2188 C 1497.8664 1344.6391 1495.2777 1345.3751 1492.4688 1345.375 C 1488.938 1345.3751 1485.9299 1344.0916 1483.1562 1341.375 C 1480.7212 1338.9651 1479.2984 1336.0298 1478.75 1332.5312 L 1515.3438 1332.5312 C 1516.0349 1332.5312 1516.6551 1331.878 1516.625 1331.1875 L 1516.4375 1327.6562 C 1516.4376 1327.6453 1516.4376 1327.634 1516.4375 1327.625 C 1516.0851 1323.4608 1514.8402 1319.5974 1512.7188 1316.0938 C 1510.5952 1312.5544 1507.7627 1309.7197 1504.25 1307.625 C 1500.723 1305.5218 1496.825 1304.4375 1492.6562 1304.4375 z M 1376.1562 1305.0938 C 1375.6651 1305.1427 1375.2181 1305.5003 1375.0625 1305.9688 L 1372.6875 1312.9062 C 1372.4366 1313.6744 1373.0983 1314.5903 1373.9062 1314.5938 L 1396.8438 1314.5938 L 1368.5938 1352.5 C 1368.0556 1353.2609 1368.6938 1354.5168 1369.625 1354.5312 L 1427.3125 1354.5312 C 1427.8464 1354.531 1428.6629 1354.1638 1428.375 1353.3438 L 1425.6562 1346.3125 C 1425.3791 1345.5084 1425.0284 1345.1067 1424.25 1345.0625 L 1385.9062 1345.0625 L 1414.375 1307.2188 C 1414.4786 1306.6951 1414.5411 1306.133 1414.3438 1305.5625 C 1414.108 1305.2576 1413.7603 1305.0994 1413.375 1305.0938 L 1376.2812 1305.0938 L 1376.1562 1305.0938 z M 1619 1306.2812 C 1618.373 1306.3453 1617.8438 1306.9322 1617.8438 1307.5625 L 1617.8438 1339.0312 C 1617.8438 1341.2173 1617.2021 1342.9207 1615.9062 1344.375 C 1614.6127 1345.8573 1613.3527 1346.4686 1611.875 1346.4688 L 1611.4375 1346.4688 C 1610.7675 1346.4688 1610.1597 1347.08 1610.1562 1347.75 L 1610.1562 1354.0312 C 1610.1562 1354.7013 1610.7675 1355.3125 1611.4375 1355.3125 L 1611.875 1355.3125 C 1616.2842 1355.3125 1620.1238 1353.6677 1623.125 1350.4688 C 1626.1408 1347.2888 1627.7188 1343.405 1627.7188 1339.0312 L 1627.7188 1307.5625 C 1627.7188 1306.8927 1627.1074 1306.2845 1626.4375 1306.2812 L 1619.125 1306.2812 L 1619 1306.2812 z M 1691.25 1306.375 C 1690.6228 1306.439 1690.0937 1307.0259 1690.0938 1307.6562 L 1690.0938 1350.7812 C 1690.0938 1351.4512 1690.705 1352.0591 1691.375 1352.0625 L 1698.625 1352.0625 C 1698.625 1352.0625 1699.9029 1351.4512 1699.9062 1350.7812 L 1699.9062 1307.6562 C 1699.9062 1306.9863 1699.2949 1306.3784 1698.625 1306.375 L 1691.375 1306.375 L 1691.25 1306.375 z M 1582.0938 1311.375 C 1585.1203 1311.375 1587.7893 1312.333 1590.2812 1314.3438 C 1592.3308 1315.9788 1593.6818 1318.1111 1594.6562 1320.5625 L 1569.4688 1320.5625 C 1570.5076 1318.1122 1571.9105 1315.9791 1573.9375 1314.3438 C 1576.4639 1312.3283 1579.1335 1311.375 1582.0938 1311.375 z M 1492.6562 1314 C 1495.6829 1314 1498.3518 1314.958 1500.8438 1316.9688 C 1502.8963 1318.6062 1504.2692 1320.7386 1505.25 1323.1875 L 1480.0625 1323.1875 C 1481.1013 1320.7372 1482.5043 1318.604 1484.5312 1316.9688 C 1487.0614 1314.9501 1489.6962 1314 1492.6562 1314 z "
         inkscape:radius="1.8521204"
         sodipodi:type="inkscape:offset" />
      <path
         inkscape:export-ydpi="38.709675"
         inkscape:export-xdpi="38.709675"
         inkscape:export-filename="/home/bajlo/Documents/www/www-tvorba/dragosek.com/bajlo/images/logo.png"
         sodipodi:nodetypes="cccccccccccccccccccccccsccscccccccssssssccccsccccccccsccssssscccccccscccccscscccccsccssssscccccccscccccscscccccsssccsssccccccccccsscccccccscscccccccccccccccccccccccccccccccccccccccccccccccccccccccc"
         d="m 253.96629,515.58258 c -0.2358,-0.305 -0.5733,-0.453 -0.9587,-0.4586 l -37.0938,0 c -0.042,0 -0.083,0 -0.125,0 l 0,-2e-4 0,4e-4 2e-4,0 c -0.4912,0.049 -0.938,0.4066 -1.0937,0.875 l -2.375,6.9374 c -0.2509,0.7681 0.4107,1.6842 1.2187,1.6876 l 22.9322,0 -28.245,37.8954 c -0.5382,0.7608 0.1,2.0168 1.0312,2.0313 l 57.6849,0 c 0.5339,-4e-4 1.3349,-0.3519 1.0469,-1.1719 l -2.7073,-7.0292 c -0.2771,-0.8041 -0.6173,-1.2234 -1.3956,-1.2676 l -38.3476,0 28.455,-37.8276 c 0.1035,-0.5238 0.1702,-1.1016 -0.027,-1.672 l -4e-4,0 z m 131.6688,-3.5595 c -0.1062,0.01 -0.2115,0.028 -0.3125,0.062 -3.6213,1.2859 -6.817,3.5591 -9.75,6.3437 -0.1909,-1.6163 -0.4812,-3.1953 -1.0313,-4.7187 -0.1815,-0.4942 -0.6923,-0.8478 -1.2187,-0.8437 l -8.0313,0 c -0.8809,-0.01 -1.558,1.091 -1.1562,1.875 0.3871,0.7528 0.8905,2.7074 1.2812,5.5624 0.422,2.8634 0.6563,5.4144 0.6563,7.625 l 0,34.6428 c 0,0.6699 0.6113,1.2779 1.2812,1.2813 l 7.1563,0 c 0.6699,0 1.2779,-0.6114 1.2812,-1.2813 l 0,-25.7052 c 0,-0.5895 0.037,-1.1822 0.094,-1.8438 10e-4,-0.011 0,-0.02 0,-0.031 0.081,-0.6103 0.2748,-1.4961 0.5625,-2.5938 0,-0.013 0,-0.018 0,-0.031 0.3152,-1.1111 0.7098,-2.1384 1.1875,-3.0938 0.4529,-0.9059 1.1496,-1.9073 2.125,-2.9688 0.9471,-1.0306 2.067,-1.8872 3.3438,-2.625 1e-4,-0.01 1e-4,-0.021 0,-0.031 1.2313,-0.7387 2.889,-1.3775 4.9375,-1.875 2.0152,-0.5182 4.2963,-0.7812 6.8437,-0.7812 0.5457,0.01 1.0733,-0.3755 1.2396,-0.8952 0.1663,-0.5198 -0.042,-1.1363 -0.4896,-1.4486 l -9.125,-6.4062 c -0.253,-0.1741 -0.5698,-0.2534 -0.875,-0.2188 l 10e-5,-10e-5 -3e-4,0 z m -53.3438,2.438 c -4.3629,0 -8.4418,1.1738 -12.125,3.5 -3.6689,2.3173 -6.5675,5.4251 -8.6562,9.2813 -2.0922,3.8301 -3.125,8.0161 -3.125,12.4687 0,4.4753 1.0054,8.6726 3.0312,12.5313 -1e-4,0.01 -1e-4,0.021 0,0.031 2.0596,3.8297 4.9518,6.9304 8.5938,9.2188 3.6551,2.2966 7.7085,3.4374 12.0937,3.4374 1.1824,0 2.398,-0.057 3.625,-0.2187 1.3192,-0.1691 2.7985,-0.5579 4.5,-1.125 1.7351,-0.5784 3.4169,-1.3443 5,-2.2813 1.621,-0.9593 3.2271,-2.2584 4.875,-3.9062 1.6773,-1.7096 3.1618,-3.7047 4.4063,-5.9062 0.3219,-0.5966 0.068,-1.4331 -0.5313,-1.75 l -6.25,-3.3438 c -0.5704,-0.2946 -1.3508,-0.078 -1.6875,0.4688 -1.6855,2.8478 -3.725,4.9661 -6.125,6.4062 l 0,-0.031 c -2.4148,1.4204 -5.0034,2.1563 -7.8125,2.1562 -3.5306,10e-5 -6.5387,-1.2834 -9.3125,-4 -2.4351,-2.4099 -3.8578,-5.3453 -4.4062,-8.8438 l 36.5937,0 c 0.6912,0 1.3113,-0.6532 1.2813,-1.3437 l -0.1875,-3.5313 c 1e-4,-0.01 1e-4,-0.021 0,-0.031 -0.3524,-4.1642 -1.5973,-8.0274 -3.7188,-11.5312 -2.1236,-3.5393 -4.9561,-6.3741 -8.4687,-8.4688 -3.5271,-2.1033 -7.4252,-3.1875 -11.5938,-3.1875 l 0,-2e-4 z m 89.4375,-2.6036 c -4.3629,0 -8.4418,1.1738 -12.125,3.5 -3.6689,2.3173 -6.5675,5.4251 -8.6562,9.2813 -2.0895,3.8251 -3.1563,8.0098 -3.1563,12.4687 0,4.4815 1.0393,8.6776 3.0625,12.5313 -1e-4,0.01 -1e-4,0.021 0,0.031 2.0569,3.8246 4.9176,6.9285 8.5625,9.2188 3.6581,2.2985 7.7398,3.4374 12.125,3.4374 1.1824,0 2.3697,-0.058 3.5938,-0.2187 1.3163,-0.1687 2.8251,-0.5563 4.5312,-1.125 1.7397,-0.58 3.3924,-1.3483 4.9688,-2.2813 1.621,-0.9593 3.2271,-2.2584 4.875,-3.9062 1.6772,-1.7096 3.1618,-3.7047 4.4062,-5.9062 0.3222,-0.5966 0.068,-1.4334 -0.5312,-1.7503 l -6.25,-3.3438 c -0.5704,-0.2946 -1.3509,-0.078 -1.6875,0.4688 -1.6856,2.8478 -3.7251,4.9661 -6.125,6.4062 l 0,-0.031 c -2.4187,1.4227 -4.9722,2.1563 -7.7813,2.1562 -3.5306,10e-5 -6.5732,-1.2865 -9.3437,-4 -2.4351,-2.4099 -3.8579,-5.3453 -4.4063,-8.8438 l 36.5938,0 c 0.6911,0 1.3112,-0.6532 1.2812,-1.3437 l -0.1562,-3.5313 c 1e-4,-0.01 1e-4,-0.021 0,-0.031 -0.353,-4.1709 -1.6316,-8.0324 -3.75,-11.5312 -2.1236,-3.5393 -4.9561,-6.3741 -8.4688,-8.4688 -3.524,-2.1015 -7.3939,-3.1875 -11.5625,-3.1875 l 0,1e-4 z m 80.1679,0.3536 c -2.7278,0 -6.7125,1.0825 -9.4375,3.0937 -1.7296,1.2767 -3.2215,2.7742 -4.5937,4.375 -0.034,-0.4861 -0.01,-1.2806 -0.062,-1.6562 0,-0.01 10e-4,-0.023 0,-0.031 -0.1409,-1.1417 -0.5026,-2.5082 -1.0313,-4.2188 -0.1604,-0.5171 -0.6773,-0.9015 -1.2187,-0.9062 l -8.125,0 c -0.9056,-0.01 -1.5819,1.1555 -1.125,1.9374 0.4066,0.6913 0.9539,2.5679 1.3125,5.4063 -1e-4,0.01 -1e-4,0.021 0,0.031 0.3911,2.8284 0.5937,5.4017 0.5937,7.6874 l 0,32.875 c 0,0.6699 0.6113,1.2779 1.2813,1.2813 l 7.25,0 c 0.6699,0 1.2779,-0.6114 1.2812,-1.2813 l 0,-23.3437 c 0,-1.5881 0.088,-4.0524 1.4072,-6.6036 1.3094,-2.5607 3.2948,-4.7541 5.4834,-6.4433 2.0652,-1.9504 4.378,-2.4913 6.5318,-2.4029 3.5443,0.169 5.6064,1.0681 7.1912,3.1979 0.5522,1.0971 1.058,2.1277 1.3551,3.3138 -10e-5,0.01 -10e-5,0.021 0,0.031 0.2538,1.1843 0.375,2.4529 0.375,3.7813 l 0,28.6847 c 0,0.6699 0.6113,1.2779 1.2813,1.2813 l 7.3125,0 c 0.6699,0 1.2779,-0.6114 1.2812,-1.2813 l 0,-28.6847 c 0,-2.6214 -0.3249,-5.0882 -0.9687,-7.4063 -0.6463,-2.3585 -1.6237,-4.5011 -2.9375,-6.4062 -1.3373,-1.939 -3.12,-3.5238 -5.3125,-4.625 -0.01,0 -0.023,0 -0.031,0 -2.2144,-1.1348 -6.3589,-1.6875 -9.0938,-1.6875 l 0,9e-4 -7e-4,0 z m -241.6113,1.1464 c -0.1231,0.4959 -0.1537,1.1781 0.023,1.7814 l 21.7012,49.4155 c 0.4328,0.8539 1.9028,0.8342 2.3125,-0.031 l 22.375,-48.7831 c 0.3455,-0.7743 -0.3085,-1.7994 -1.1562,-1.8124 l -7.8438,0 c -0.4781,-4e-4 -0.9449,0.2898 -1.1562,0.7187 l -13.5625,28.533 -12.75,-29.5937 c -0.2113,-0.4289 -0.6781,-0.7191 -1.1563,-0.7187 l -7.7812,0 c -0.3959,0 -0.7637,0.048 -1.0058,0.4903 l 3e-4,0 z m 198.3497,2.9474 c -0.6271,0.064 -1.1564,0.6508 -1.1563,1.2812 l 0,31.4911 c 0,2.1861 -0.6418,3.8894 -1.9375,5.3438 -1.2936,1.4822 -2.5534,2.0936 -4.0312,2.0937 l -0.4375,0 c -0.67,0 -1.2779,0.6114 -1.2813,1.2813 l 0,6.2812 c 0,0.6699 0.6114,1.2812 1.2813,1.2812 l 0.4375,0 c 4.4092,0 8.2489,-1.6447 11.25,-4.8437 3.0159,-3.1799 4.5937,-7.0638 4.5937,-11.4375 l 0,-31.4911 c 0,-0.6699 -0.6113,-1.2778 -1.2812,-1.2812 l -7.3125,0 c -0.042,0 -0.083,0 -0.125,0 z m 72.2295,0.094 c -0.6272,0.064 -1.1564,0.6509 -1.1563,1.2813 l 0,43.1249 c 0,0.6699 0.6113,1.2779 1.2813,1.2813 l 7.25,0 c 0,0 1.2778,-0.6114 1.2812,-1.2813 l 0,-43.1249 c 0,-0.6699 -0.6113,-1.2779 -1.2812,-1.2813 l -7.25,0 c -0.042,0 -0.083,0 -0.125,0 z m -198.5733,7.6242 c 3.0266,0 5.6955,0.9581 8.1875,2.9688 2.0526,1.6375 3.4255,3.7698 4.4063,6.2187 l -25.1875,0 c 1.0388,-2.4503 2.4417,-4.5833 4.4687,-6.2187 2.5301,-2.0185 5.1649,-2.9688 8.125,-2.9688 z m 89.4375,-2.6036 c 3.0266,0 5.6955,0.9581 8.1875,2.9688 2.0496,1.635 3.4005,3.7672 4.375,6.2187 l -25.1875,0 c 1.0388,-2.4503 2.4418,-4.5833 4.4688,-6.2187 2.5263,-2.0155 5.1961,-2.9688 8.1562,-2.9688 z"
         style="font-size:94.04064941px;font-style:normal;font-variant:normal;font-weight:bold;font-stretch:normal;text-align:start;line-height:100%;writing-mode:lr-tb;text-anchor:start;fill:#6eb049;fill-opacity:1;stroke:none;font-family:Sawasdee;-inkscape-font-specification:Abandoned Bitplane Bold"
         id="path3819-2-5-6"
         inkscape:connector-curvature="0" />
      <path
         inkscape:export-ydpi="38.709675"
         inkscape:export-xdpi="38.709675"
         inkscape:export-filename="/home/bajlo/Documents/www/www-tvorba/dragosek.com/bajlo/images/logo.png"
         transform="matrix(1.2179382,0,0,1.1259953,-1196.9768,-1076.0259)"
         d="m 1368.3125,1405.0653 c 0,3.3223 -2.5953,6.0156 -5.7969,6.0156 -3.2015,0 -5.7968,-2.6933 -5.7968,-6.0156 0,-3.3223 2.5953,-6.0156 5.7968,-6.0156 3.2016,0 5.7969,2.6933 5.7969,6.0156 z"
         sodipodi:ry="6.015625"
         sodipodi:rx="5.796875"
         sodipodi:cy="1405.0653"
         sodipodi:cx="1362.5156"
         id="path3836"
         style="color:#000000;fill:#000000;fill-opacity:1;fill-rule:nonzero;stroke:none;stroke-width:0.514;marker:none;visibility:visible;display:inline;overflow:visible;enable-background:accumulate"
         sodipodi:type="arc" />
      <path
         inkscape:export-ydpi="38.709675"
         inkscape:export-xdpi="38.709675"
         inkscape:export-filename="/home/bajlo/Documents/www/www-tvorba/dragosek.com/bajlo/images/logo.png"
         transform="matrix(1.2179382,0,0,1.1259953,-1124.5424,-1075.5036)"
         d="m 1368.3125,1405.0653 c 0,3.3223 -2.5953,6.0156 -5.7969,6.0156 -3.2015,0 -5.7968,-2.6933 -5.7968,-6.0156 0,-3.3223 2.5953,-6.0156 5.7968,-6.0156 3.2016,0 5.7969,2.6933 5.7969,6.0156 z"
         sodipodi:ry="6.015625"
         sodipodi:rx="5.796875"
         sodipodi:cy="1405.0653"
         sodipodi:cx="1362.5156"
         id="path3836-3"
         style="color:#000000;fill:#000000;fill-opacity:1;fill-rule:nonzero;stroke:none;stroke-width:0.514;marker:none;visibility:visible;display:inline;overflow:visible;enable-background:accumulate"
         sodipodi:type="arc" />
      <path
         inkscape:export-ydpi="38.709675"
         inkscape:export-xdpi="38.709675"
         inkscape:export-filename="/home/bajlo/Documents/www/www-tvorba/dragosek.com/bajlo/images/logo.png"
         transform="matrix(0.98067674,0,0,0.90664485,-873.6221,-766.82922)"
         d="m 1368.3125,1405.0653 c 0,3.3223 -2.5953,6.0156 -5.7969,6.0156 -3.2015,0 -5.7968,-2.6933 -5.7968,-6.0156 0,-3.3223 2.5953,-6.0156 5.7968,-6.0156 3.2016,0 5.7969,2.6933 5.7969,6.0156 z"
         sodipodi:ry="6.015625"
         sodipodi:rx="5.796875"
         sodipodi:cy="1405.0653"
         sodipodi:cx="1362.5156"
         id="path3836-7"
         style="color:#000000;fill:#ffffff;fill-opacity:1;fill-rule:nonzero;stroke:none;stroke-width:0.514;marker:none;visibility:visible;display:inline;overflow:visible;enable-background:accumulate"
         sodipodi:type="arc" />
      <path
         inkscape:export-ydpi="38.709675"
         inkscape:export-xdpi="38.709675"
         inkscape:export-filename="/home/bajlo/Documents/www/www-tvorba/dragosek.com/bajlo/images/logo.png"
         transform="matrix(0.49492189,0,0,0.45755993,-210.35376,-134.3263)"
         d="m 1368.3125,1405.0653 c 0,3.3223 -2.5953,6.0156 -5.7969,6.0156 -3.2015,0 -5.7968,-2.6933 -5.7968,-6.0156 0,-3.3223 2.5953,-6.0156 5.7968,-6.0156 3.2016,0 5.7969,2.6933 5.7969,6.0156 z"
         sodipodi:ry="6.015625"
         sodipodi:rx="5.796875"
         sodipodi:cy="1405.0653"
         sodipodi:cx="1362.5156"
         id="path3836-5"
         style="color:#000000;fill:#000000;fill-opacity:1;fill-rule:nonzero;stroke:none;stroke-width:0.514;marker:none;visibility:visible;display:inline;overflow:visible;enable-background:accumulate"
         sodipodi:type="arc" />
      <path
         inkscape:export-ydpi="38.709675"
         inkscape:export-xdpi="38.709675"
         inkscape:export-filename="/home/bajlo/Documents/www/www-tvorba/dragosek.com/bajlo/images/logo.png"
         transform="matrix(0.9960049,0,0,0.92081588,-822.645,-786.52422)"
         d="m 1368.3125,1405.0653 c 0,3.3223 -2.5953,6.0156 -5.7969,6.0156 -3.2015,0 -5.7968,-2.6933 -5.7968,-6.0156 0,-3.3223 2.5953,-6.0156 5.7968,-6.0156 3.2016,0 5.7969,2.6933 5.7969,6.0156 z"
         sodipodi:ry="6.015625"
         sodipodi:rx="5.796875"
         sodipodi:cy="1405.0653"
         sodipodi:cx="1362.5156"
         id="path3836-7-7"
         style="color:#000000;fill:#ffffff;fill-opacity:1;fill-rule:nonzero;stroke:none;stroke-width:0.514;marker:none;visibility:visible;display:inline;overflow:visible;enable-background:accumulate"
         sodipodi:type="arc" />
      <path
         inkscape:export-ydpi="38.709675"
         inkscape:export-xdpi="38.709675"
         inkscape:export-filename="/home/bajlo/Documents/www/www-tvorba/dragosek.com/bajlo/images/logo.png"
         transform="matrix(0.5286358,0,0,0.48872876,-183.95541,-178.04874)"
         d="m 1368.3125,1405.0653 c 0,3.3223 -2.5953,6.0156 -5.7969,6.0156 -3.2015,0 -5.7968,-2.6933 -5.7968,-6.0156 0,-3.3223 2.5953,-6.0156 5.7968,-6.0156 3.2016,0 5.7969,2.6933 5.7969,6.0156 z"
         sodipodi:ry="6.015625"
         sodipodi:rx="5.796875"
         sodipodi:cy="1405.0653"
         sodipodi:cx="1362.5156"
         id="path3836-5-8"
         style="color:#000000;fill:#000000;fill-opacity:1;fill-rule:nonzero;stroke:none;stroke-width:0.514;marker:none;visibility:visible;display:inline;overflow:visible;enable-background:accumulate"
         sodipodi:type="arc" />
    </g>
  </g>
</svg>
