<?xml version="1.0" encoding="UTF-8" standalone="no"?>
<!-- Created with Inkscape (http://www.inkscape.org/) -->

<svg
   xmlns:dc="http://purl.org/dc/elements/1.1/"
   xmlns:cc="http://creativecommons.org/ns#"
   xmlns:rdf="http://www.w3.org/1999/02/22-rdf-syntax-ns#"
   xmlns:svg="http://www.w3.org/2000/svg"
   xmlns="http://www.w3.org/2000/svg"
   xmlns:sodipodi="http://sodipodi.sourceforge.net/DTD/sodipodi-0.dtd"
   xmlns:inkscape="http://www.inkscape.org/namespaces/inkscape"
   width="700"
   height="100"
   id="svg4194"
   version="1.1"
   inkscape:version="0.48.4 r9939"
   sodipodi:docname="logo.svg">
  <defs
     id="defs4196" />
  <sodipodi:namedview
     id="base"
     pagecolor="#ffffff"
     bordercolor="#666666"
     borderopacity="1.0"
     inkscape:pageopacity="0.0"
     inkscape:pageshadow="2"
     inkscape:zoom="0.9899495"
     inkscape:cx="380.96448"
     inkscape:cy="83.752127"
     inkscape:document-units="px"
     inkscape:current-layer="layer1"
     showgrid="false"
     inkscape:window-width="1366"
     inkscape:window-height="711"
     inkscape:window-x="-4"
     inkscape:window-y="-4"
     inkscape:window-maximized="1"
     showguides="true"
     inkscape:guide-bbox="true" />
  <metadata
     id="metadata4199">
    <rdf:RDF>
      <cc:Work
         rdf:about="">
        <dc:format>image/svg+xml</dc:format>
        <dc:type
           rdf:resource="http://purl.org/dc/dcmitype/StillImage" />
        <dc:title />
      </cc:Work>
    </rdf:RDF>
  </metadata>
  <g
     inkscape:label="Layer 1"
     inkscape:groupmode="layer"
     id="layer1"
     transform="translate(0,-952.36218)">
    <g
       id="g3831"
       transform="matrix(0.91433405,0,0,0.91433405,6.4081086,62.240157)"
       style="fill:#d3d3d3;fill-opacity:1">
      <path
         style="fill:#d3d3d3;fill-opacity:1"
         inkscape:connector-curvature="0"
         d="m 93.49004,1050.7305 c 5.11801,-13.4537 11.51891,-0.8174 19.59188,-8.9327 0.5516,-0.6512 -0.0189,-1.9067 0.53157,-2.558 0.81348,-0.8583 2.40428,-0.1986 3.21721,-1.0572 0,0 2.71537,-7.0663 2.7422,-7.3015 2.54773,-3.5149 8.53479,-5.9205 12.74419,-7.3405 -0.80304,-1.2819 0.14363,-3.3149 -0.66114,-4.5969 -0.83126,-1.0478 -2.79177,-0.5606 -3.6505,-1.3721 -0.20721,-0.2613 -1.67241,-6.1423 -1.88065,-6.4054 -1.06563,-1.073 -3.26246,-0.6125 -4.61708,-1.2436 -1.14714,-0.3695 -3.65023,-1.3718 -4.50886,-2.1847 -0.44233,-0.2885 -0.33422,-1.2281 -0.83155,-1.0478 -4.18261,1.1855 3.51592,2.5461 -3.37815,2.4678 -0.46853,-0.054 -1.14656,-0.3694 -1.56372,-0.8942 -0.62219,-0.784 -0.2526,-1.9332 -0.87679,-2.7176 -0.85862,-0.8132 -4.11962,-1.426 -3.09893,-2.023 3.37758,-2.4678 4.85209,1.2725 2.68121,-4.68954 0.0268,-0.2345 -0.44349,-0.2885 -0.7054,-0.081 -0.28812,0.4421 -0.16168,1.40884 -0.65827,1.59104 -0.99322,0.361 -2.11329,-0.243 -3.05294,-0.35111 -0.93966,-0.1081 -2.16801,0.22581 -3.08263,-0.1168 -2.03252,-0.94833 -5.62035,-4.93137 -9.19696,-4.8658 -1.43755,0.0722 3.13745,5.83391 2.84719,6.27751 -0.86735,1.3274 -3.16133,0.5883 -4.44395,1.393 -0.78644,0.624 -0.74065,2.2944 -1.73424,2.6566 -3.68433,1.0038 -4.39259,-5.2653 -4.98785,-6.28594 l -5.02519,-3.90938 c -0.11787,-3.10913 8.94306,-3.25706 2.95052,-7.0395 -1.09258,-0.84025 -6.58403,1.38462 -6.58403,1.38462 -0.62448,-0.78444 0.2162,-1.87903 -0.40824,-2.66404 -0.1806,-0.49734 -0.93965,-0.10812 -1.67183,0.0454 -0.23457,-0.0267 -0.55015,0.65123 -0.99349,0.36071 -0.38818,-0.75752 -0.0189,-1.90614 -0.87735,-2.71788 -2.83731,-2.23043 -6.13384,-0.46769 -9.54107,-3.95334 -2.36905,-2.17663 1.37153,-3.65054 -2.80195,-4.60738 -6.44269,-1.93072 0.48003,4.10272 -5.97055,4.31297 -0.57723,0.88579 -0.89442,1.56198 -1.59779,1.48104 -3.13428,0.35402 -6.58161,-13.13223 -10.00316,-6.14823 -0.60602,1.11992 3.51533,2.54601 2.49435,3.14299 -3.08875,2.02408 -7.10913,1.80114 -10.11656,3.12017 -0.49803,0.182 -0.1621,1.41049 -0.66029,1.59072 -1.98713,0.72348 -4.40785,-0.98215 -5.95352,0.0297 -1.28176,0.80478 -1.02744,2.73836 -2.30975,3.54283 -0.5244,0.41486 -0.80437,-1.28378 -1.53636,-1.12881 -2.16801,0.22582 -2.72807,3.01791 -4.24493,3.79531 -0.78614,0.62408 -2.06003,-0.71182 -2.846049,-0.0895 -0.7588,0.38983 -0.21621,1.87902 -1.00179,2.50342 -1.07513,1.06607 -3.41451,-1.34491 -4.11961,-1.42596 -5.9803398,0.2645 -7.4332098,4.62043 -9.7448398,8.16107 -0.57691,0.8855 -0.19874,-2.40225 -1.05765,-3.21549 -0.59699003,-1.02069 -1.97870004,-1.41692 -3.12756,-1.78679 -2.0598903,-0.71385 1.53979996,7.31699 5.88525,10.91029 0.44348,0.2885 2.06133,0.714 2.13393,2.1495 0.32691,3.3692 -2.59317,1.8437 -3.35926,4.3743 -0.3156,0.6783 3.85205,9.9633 4.47649,10.7483 3.5339598,4.4521 4.7976798,1.741 7.0850798,4.6233 1.45419,1.8335 1.39131,4.4432 2.87399,6.0426 3.019409,2.727 10.889239,6.7255 11.993699,11.6132 l 0.23428,0.027 c 3.54272,2.3112 5.79433,7.5684 10.94283,6.2561 0.96702,-0.1264 0.94668,-2.0329 1.88631,-1.9245 1.64476,0.1891 3.04653,2.4919 4.74399,2.2118 l 2.58126,-5.8908 c 1.02065,-0.5965 2.47628,1.2372 3.02644,0.5859 0.52512,-0.4168 0.83726,-7.283 1.12769,-7.7249 0.7841,-0.6239 2.14093,0.01 3.02643,0.586 0.44206,0.2881 -0.16209,1.4105 0.27997,1.6986 1.17651,0.1354 2.27797,-1.1671 3.45161,-1.0322 6.81243,0.7836 11.61957,6.5736 17.88141,8.0064 0.94023,0.1081 2.05987,0.7141 3.02664,0.5871 1.48951,-0.5431 2.17628,-2.3682 3.40434,-2.7021 1.69899,-0.2811 3.69602,3.0422 4.84345,3.4116 0.70513,0.081 1.80673,-1.2196 2.45798,-0.6694 1.06646,1.0737 1.42715,2.0675 1.31904,3.0071 z"
         id="CzechRepublic" />
      <path
         style="fill:#d3d3d3;fill-opacity:1"
         inkscape:connector-curvature="0"
         d="m 210.13253,1038.5144 c -0.0332,2.3754 -2.05469,5.4742 -2.56118,7.7971 -0.42514,1.6176 -0.3782,3.2881 -1.2454,4.6175 -0.89411,1.5617 -3.06052,1.7897 -3.48569,3.4076 -0.65843,1.5891 0.32666,3.3685 0.11098,5.2484 -0.21592,1.879 -3.73856,1.474 -5.67202,1.7269 -0.96827,0.1278 -2.04111,1.1943 -2.69221,0.6421 -4.30181,-1.9214 -0.26595,-5.9804 -6.10938,-6.8897 -2.34844,-0.2698 -4.13683,2.8559 -6.51274,2.8221 -4.07496,0.2441 -8.75807,-4.5779 -12.79321,-0.5208 -1.62555,1.7169 -1.41503,8.1681 -4.1332,9.0455 -0.96671,0.1261 -2.26852,-0.9756 -3.26301,-0.6132 -4.02845,1.9166 1.1858,4.1826 -4.7942,4.4466 -1.90667,0.018 -5.53971,-5.6351 -7.79723,-2.563 -0.84032,1.0935 0.0908,3.3437 -0.95696,4.1749 -2.88012,2.2859 -9.9738,-0.1947 -13.53138,1.7756 -3.26944,1.5279 -0.35956,5.1942 0.41771,6.7127 0.75091,1.7512 -19.61978,2.9792 -22.3849,2.186 -4.35565,-1.4526 -6.94107,-7.9395 -11.11642,-8.8945 -0.91313,-0.343 -1.643289,-0.1893 -2.140622,-0.01 -2.46814,-3.3776 -4.46486,-6.7012 -6.17336,-10.4682 -1.14073,-2.5103 2.76195,-5.3947 2.87821,-8.475 4.881722,-13.4807 11.309712,-1.0792 19.355592,-8.9597 0.55159,-0.6512 -0.0189,-1.9067 0.53156,-2.558 0.81349,-0.8583 2.40428,-0.1985 3.21721,-1.0572 0,0 2.71538,-7.0663 2.7422,-7.3014 2.54773,-3.5149 8.53479,-5.9205 12.7442,-7.3406 0.3895,0.7594 2.16944,-0.2257 2.7919,0.5586 0.62376,0.7864 -0.73901,2.296 -0.11527,3.0827 3.40608,3.4853 7.83874,-8.1427 9.99784,-6.2296 1.30035,1.1019 1.05734,3.2158 2.09839,4.525 0.20737,0.2631 1.22809,-0.3342 1.43529,-0.073 0.18056,0.4979 -0.8672,1.3295 -0.42341,1.6177 1.14771,0.3698 2.45594,-0.6693 3.34202,-0.092 1.56403,0.894 -0.35825,5.1961 -0.41211,5.6652 -0.13485,1.1736 2.19452,-0.4607 3.39621,-0.5618 0.96644,-0.1264 1.68987,1.861 2.68381,1.498 0.26132,-0.2072 3.9174,-7.1639 7.28653,-7.4911 0.96675,-0.1267 1.79829,0.9211 2.73765,1.0292 0.96702,-0.1265 1.59994,-1.4827 2.51341,-1.1402 1.84866,0.4519 2.72888,3.1703 4.60821,3.3862 1.40676,0.1616 2.74291,-1.1117 3.58321,-2.2049 0.29055,-0.4436 -1.11995,-0.6057 -1.06642,-1.0742 1.08345,-3.2091 2.1159,0.2431 3.10778,-0.1195 0.7322,-0.1538 0.89426,-1.5637 1.59965,-1.4826 3.63036,-0.5333 11.58965,0.6197 14.37251,3.3192 0.62436,0.7862 0.20236,2.4046 1.08645,2.9811 1.30209,1.102 2.94569,1.2911 4.53776,1.9492 2.03088,0.9471 4.11908,1.4253 6.20404,1.9042 z"
         id="Slovakia" />
    </g>
    <text
       sodipodi:linespacing="125%"
       id="text3817-1-4-5-4"
       y="999.64337"
       x="650.98877"
       style="font-size:44.01565169999999900px;font-style:normal;font-variant:normal;font-weight:bold;font-stretch:normal;text-align:start;line-height:125%;letter-spacing:0px;word-spacing:0px;writing-mode:lr-tb;text-anchor:start;fill:#fa5757;fill-opacity:1;stroke:none;font-family:Calibri;-inkscape-font-specification:Calibri Bold"
       xml:space="preserve"><tspan
         y="999.64337"
         x="650.98877"
         id="tspan3819-7-0-1-2"
         sodipodi:role="line">CH</tspan></text>
    <g
       style="font-size:135.73808288999999000px;font-style:normal;font-variant:normal;font-weight:bold;font-stretch:normal;text-align:start;line-height:125%;letter-spacing:0px;word-spacing:0px;writing-mode:lr-tb;text-anchor:start;fill:#f40000;fill-opacity:1;stroke:none;font-family:Calibri;-inkscape-font-specification:Calibri Bold"
       id="text3817-8-5-1"
       transform="matrix(0.75037117,0,0,0.75037117,138.65144,378.37352)">
      <path
         d="m 175.10301,878.50712 c -7e-5,0.48605 -0.12158,0.91686 -0.36453,1.29243 -0.24309,0.37558 -0.70704,0.68488 -1.39185,0.9279 -0.68494,0.24302 -1.62389,0.43081 -2.81683,0.56337 -1.19307,0.13255 -2.69538,0.19883 -4.50693,0.19883 -2.87212,0 -4.93779,-0.11046 -6.19702,-0.33139 -1.25935,-0.22093 -2.16515,-0.55232 -2.71742,-0.99418 -0.55237,-0.44185 -0.98318,-0.97208 -1.29242,-1.59068 l -25.91484,-40.69491 0,40.69491 c -3e-5,0.48605 -0.13259,0.90581 -0.39767,1.25929 -0.26514,0.35349 -0.72909,0.65174 -1.39185,0.89476 -0.66281,0.24302 -1.54652,0.43081 -2.65113,0.56337 -1.10466,0.13255 -2.5186,0.19883 -4.24182,0.19883 -1.67907,0 -3.08196,-0.0663 -4.20867,-0.19883 -1.12675,-0.13256 -2.02151,-0.32035 -2.68428,-0.56337 -0.66279,-0.24302 -1.13779,-0.54127 -1.42498,-0.89476 -0.28722,-0.35348 -0.43082,-0.77324 -0.43081,-1.25929 l 0,-80.79332 c -1e-5,-0.48596 0.14359,-0.90572 0.43081,-1.25929 0.28719,-0.3534 0.76219,-0.6406 1.42498,-0.86162 0.66277,-0.22084 1.55753,-0.39758 2.68428,-0.53022 1.12671,-0.13247 2.5296,-0.19875 4.20867,-0.19884 1.72322,9e-5 3.13716,0.0664 4.24182,0.19884 1.10461,0.13264 1.98832,0.30938 2.65113,0.53022 0.66276,0.22102 1.12671,0.50822 1.39185,0.86162 0.26508,0.35357 0.39764,0.77333 0.39767,1.25929 l 0,36.51938 25.1195,-36.4531 c 0.30924,-0.57433 0.68482,-1.04932 1.12673,-1.42499 0.4418,-0.37549 1.01621,-0.67374 1.72324,-0.89475 0.70691,-0.22085 1.61271,-0.3755 2.71741,-0.46395 1.10458,-0.0883 2.51852,-0.13247 4.24181,-0.13256 1.76736,9e-5 3.22549,0.0664 4.37438,0.19884 1.14875,0.13264 2.0656,0.32043 2.75055,0.56336 0.6848,0.24311 1.1598,0.54136 1.42498,0.89476 0.26505,0.35357 0.3976,0.75124 0.39767,1.19301 -7e-5,0.75124 -0.1989,1.52448 -0.5965,2.31974 -0.39774,0.79542 -1.1489,2.05471 -2.25347,3.77787 l -23.52881,30.81944 25.64972,38.77284 c 0.97201,1.81161 1.55747,3.01567 1.75638,3.61217 0.19876,0.59651 0.29818,1.0715 0.29825,1.42498 z"
         style="fill:#f40000;fill-opacity:1;stroke:none"
         id="path3034"
         inkscape:connector-curvature="0" />
      <path
         d="m 257.28375,837.21571 c -9e-5,7.11391 -0.8838,13.47663 -2.65114,19.08816 -1.7675,5.61159 -4.39654,10.37258 -7.88712,14.28299 -3.49074,3.91043 -7.80987,6.89295 -12.95742,8.94758 -5.14768,2.05463 -11.10168,3.08194 -17.86202,3.08194 -6.67206,0 -12.4935,-0.87266 -17.46435,-2.61799 -4.9709,-1.74533 -9.11329,-4.40751 -12.42719,-7.98655 -3.31393,-3.57901 -5.79937,-8.13012 -7.45632,-13.65334 -1.65696,-5.52317 -2.48544,-12.06262 -2.48544,-19.61839 0,-6.93709 0.88371,-13.17829 2.65114,-18.72364 1.76741,-5.54522 4.39645,-10.26203 7.88712,-14.15043 3.49065,-3.88825 7.80978,-6.87077 12.95742,-8.94758 5.14759,-2.07663 11.12368,-3.11499 17.9283,-3.11508 6.49523,9e-5 12.2283,0.8617 17.19923,2.58485 4.97081,1.72333 9.12425,4.37446 12.46034,7.95341 3.33593,3.5791 5.8545,8.09707 7.55573,13.55392 1.70106,5.45698 2.55163,11.89702 2.55172,19.32015 z m -18.29283,0.92789 c -7e-5,-4.50688 -0.35355,-8.60509 -1.06045,-12.29463 -0.70704,-3.68944 -1.9111,-6.84871 -3.61218,-9.47781 -1.7012,-2.62897 -3.96571,-4.66151 -6.79353,-6.09761 -2.82793,-1.43596 -6.36277,-2.15397 -10.60454,-2.15405 -4.28604,8e-5 -7.86507,0.80646 -10.73709,2.41916 -2.87209,1.61285 -5.19183,3.76689 -6.95923,6.46215 -1.76745,2.69538 -3.01569,5.8436 -3.74472,9.44466 -0.72909,3.60118 -1.09362,7.41218 -1.0936,11.43302 -2e-5,4.68371 0.35346,8.89238 1.06046,12.62603 0.70694,3.7337 1.89995,6.92611 3.57903,9.57722 1.67902,2.65115 3.93248,4.67264 6.76039,6.06447 2.82784,1.39186 6.38477,2.08778 10.67082,2.08777 4.28595,10e-6 7.86498,-0.79533 10.73709,-2.38602 2.872,-1.59067 5.19174,-3.75576 6.95923,-6.49528 1.76736,-2.73948 3.0156,-5.93189 3.74473,-9.57723 0.72899,-3.64527 1.09352,-7.52255 1.09359,-11.63185 z"
         style="fill:#f40000;fill-opacity:1;stroke:none"
         id="path3036"
         inkscape:connector-curvature="0" />
      <path
         d="m 363.22645,878.70596 c -1.1e-4,0.44186 -0.12162,0.83953 -0.36453,1.19301 -0.24313,0.35348 -0.68498,0.64069 -1.32557,0.86162 -0.6408,0.22093 -1.49137,0.39767 -2.55171,0.53023 -1.06056,0.13255 -2.40822,0.19883 -4.04298,0.19883 -1.59078,0 -2.91635,-0.0663 -3.97671,-0.19883 -1.06055,-0.13256 -1.90007,-0.3093 -2.51857,-0.53023 -0.6187,-0.22093 -1.06055,-0.50814 -1.32557,-0.86162 -0.26521,-0.35348 -0.39776,-0.75115 -0.39767,-1.19301 l 0,-69.79111 -0.13256,0 -24.85438,69.72483 c -0.17681,0.57441 -0.46402,1.04941 -0.86162,1.42499 -0.39774,0.37557 -0.93901,0.67383 -1.62382,0.89475 -0.68494,0.22093 -1.55761,0.36453 -2.618,0.43081 -1.06051,0.0663 -2.34189,0.0994 -3.84414,0.0994 -1.50237,0 -2.78375,-0.0552 -3.84415,-0.1657 -1.0605,-0.11046 -1.93317,-0.2872 -2.61799,-0.53022 -0.68493,-0.24302 -1.2262,-0.54128 -1.62382,-0.89476 -0.39772,-0.35348 -0.66284,-0.77325 -0.79534,-1.25929 l -23.99277,-69.72483 -0.13256,0 0,69.79111 c -2e-5,0.44186 -0.12153,0.83953 -0.36453,1.19301 -0.24304,0.35348 -0.69594,0.64069 -1.3587,0.86162 -0.66281,0.22093 -1.51338,0.39767 -2.55172,0.53023 -1.03838,0.13255 -2.37499,0.19883 -4.00984,0.19883 -1.5907,0 -2.91626,-0.0663 -3.9767,-0.19883 -1.06047,-0.13256 -1.91104,-0.3093 -2.55172,-0.53023 -0.6407,-0.22093 -1.08256,-0.50814 -1.32557,-0.86162 -0.24303,-0.35348 -0.36454,-0.75115 -0.36453,-1.19301 l 0,-76.41895 c -1e-5,-2.25338 0.5965,-3.97662 1.78952,-5.16971 1.193,-1.19293 2.78368,-1.78943 4.77204,-1.78952 l 11.39988,0 c 2.03251,9e-5 3.77783,0.16578 5.23599,0.49709 1.45809,0.33148 2.71738,0.88379 3.77787,1.65696 1.06041,0.77333 1.94412,1.7896 2.65113,3.0488 0.70693,1.25937 1.32553,2.81691 1.85579,4.67263 l 18.55795,51.10061 0.26511,0 19.22072,-50.96806 c 0.57434,-1.85571 1.20398,-3.4243 1.88894,-4.70576 0.68479,-1.2813 1.48013,-2.31966 2.38602,-3.11508 0.90572,-0.79526 1.97722,-1.35862 3.2145,-1.6901 1.23711,-0.33131 2.67314,-0.497 4.30809,-0.49709 l 11.73127,0 c 1.19291,9e-5 2.22022,0.15474 3.08195,0.46395 0.86151,0.30938 1.56848,0.76229 2.1209,1.35871 0.55221,0.59658 0.97198,1.32565 1.25929,2.18718 0.2871,0.8617 0.4307,1.84483 0.43081,2.94939 z"
         style="fill:#f40000;fill-opacity:1;stroke:none"
         id="path3038"
         inkscape:connector-curvature="0" />
      <path
         d="m 441.43286,849.14581 c -8e-5,5.25811 -0.77333,9.96387 -2.31974,14.11729 -1.54657,4.15346 -3.82213,7.66621 -6.82667,10.53826 -3.00469,2.87207 -6.71627,5.05925 -11.13477,6.56156 -4.41861,1.50231 -9.49995,2.25346 -15.24402,2.25346 -5.39068,0 -10.229,-0.67383 -14.51496,-2.02149 -4.28603,-1.34766 -7.90924,-3.39124 -10.86965,-6.13075 -2.96045,-2.73949 -5.22496,-6.15282 -6.79354,-10.24 -1.56859,-4.08715 -2.35289,-8.87023 -2.35288,-14.34927 l 0,-52.16107 c -10e-6,-0.44177 0.13255,-0.83944 0.39767,-1.19301 0.26511,-0.3534 0.7401,-0.6406 1.42499,-0.86162 0.68486,-0.22084 1.57962,-0.39758 2.68427,-0.53022 1.10463,-0.13247 2.51856,-0.19875 4.24182,-0.19884 1.67903,9e-5 3.07087,0.0664 4.17553,0.19884 1.10462,0.13264 1.98833,0.30938 2.65114,0.53022 0.66276,0.22102 1.13775,0.50822 1.42498,0.86162 0.28718,0.35357 0.43078,0.75124 0.43081,1.19301 l 0,50.63667 c -3e-5,3.40232 0.41974,6.3517 1.25929,8.84816 0.8395,2.49651 2.04355,4.56218 3.61217,6.19703 1.56856,1.63488 3.44644,2.86103 5.63366,3.67845 2.18715,0.81744 4.6284,1.22616 7.32376,1.22615 2.73946,10e-6 5.19176,-0.41975 7.3569,-1.25929 2.16504,-0.83951 3.99874,-2.06566 5.5011,-3.67845 1.50225,-1.61276 2.66212,-3.6011 3.47962,-5.96505 0.81737,-2.36391 1.22608,-5.04818 1.22615,-8.05282 l 0,-51.63085 c -7e-5,-0.44177 0.13249,-0.83944 0.39767,-1.19301 0.26505,-0.3534 0.729,-0.6406 1.39184,-0.86162 0.66272,-0.22084 1.55748,-0.39758 2.68428,-0.53022 1.12666,-0.13247 2.52955,-0.19875 4.20867,-0.19884 1.67898,9e-5 3.05978,0.0664 4.1424,0.19884 1.08247,0.13264 1.95513,0.30938 2.61799,0.53022 0.66271,0.22102 1.12666,0.50822 1.39185,0.86162 0.26503,0.35357 0.39759,0.75124 0.39767,1.19301 z"
         style="fill:#f40000;fill-opacity:1;stroke:none"
         id="path3040"
         inkscape:connector-curvature="0" />
      <path
         d="m 518.58797,874.99437 c -8e-5,1.01627 -0.17682,1.92208 -0.53022,2.71741 -0.35357,0.79535 -0.82856,1.45813 -1.42499,1.98835 -0.59658,0.53023 -1.30355,0.91686 -2.12091,1.15988 -0.8175,0.24302 -1.64598,0.36453 -2.48543,0.36453 l -7.42318,0 c -1.54656,0 -2.88317,-0.15465 -4.00984,-0.46395 -1.12679,-0.3093 -2.16515,-0.87267 -3.11508,-1.6901 -0.95005,-0.81743 -1.8669,-1.92207 -2.75056,-3.31392 -0.88376,-1.39184 -1.87794,-3.1924 -2.98252,-5.40168 l -21.34163,-40.09841 c -1.23723,-2.38597 -2.49652,-4.95978 -3.77787,-7.72143 -1.28141,-2.76154 -2.43023,-5.44581 -3.44648,-8.05282 l -0.13255,0 c 0.17672,3.18142 0.30927,6.35173 0.39767,9.51094 0.0883,3.15932 0.13253,6.41801 0.13255,9.77606 l 0,44.87045 c -2e-5,0.44186 -0.12153,0.83953 -0.36453,1.19301 -0.24304,0.35349 -0.6628,0.65174 -1.25929,0.89476 -0.59652,0.24302 -1.40291,0.43081 -2.41916,0.56337 -1.01628,0.13255 -2.31976,0.19883 -3.91042,0.19883 -1.54651,0 -2.82789,-0.0663 -3.84414,-0.19883 -1.01628,-0.13256 -1.81162,-0.32035 -2.38602,-0.56337 -0.57443,-0.24302 -0.9721,-0.54127 -1.19302,-0.89476 -0.22093,-0.35348 -0.3314,-0.75115 -0.33139,-1.19301 l 0,-77.08173 c -1e-5,-2.07664 0.60754,-3.63418 1.82266,-4.67263 1.21509,-1.03827 2.70635,-1.55745 4.47379,-1.55754 l 9.34525,0 c 1.67902,9e-5 3.09296,0.14369 4.24181,0.43081 1.1488,0.28729 2.17611,0.76229 3.08195,1.42499 0.90577,0.66286 1.75634,1.57971 2.55171,2.75055 0.79531,1.17099 1.61274,2.61807 2.4523,4.34123 l 16.70215,31.34966 c 0.97203,1.90003 1.93306,3.76687 2.88311,5.60053 0.94993,1.83374 1.86678,3.66743 2.75055,5.5011 0.88365,1.83373 1.74527,3.63429 2.58485,5.40169 0.83947,1.76745 1.6569,3.53487 2.4523,5.30227 l 0.0663,0 c -0.13262,-3.09297 -0.23204,-6.31851 -0.29825,-9.67665 -0.0663,-3.35806 -0.0995,-6.56151 -0.0994,-9.61036 l 0,-40.23096 c -6e-5,-0.44177 0.13249,-0.83944 0.39767,-1.19301 0.26505,-0.3534 0.70691,-0.6627 1.32557,-0.9279 0.61853,-0.26503 1.43596,-0.45282 2.4523,-0.56337 1.0162,-0.11037 2.31967,-0.16561 3.91042,-0.16569 1.50224,8e-5 2.76153,0.0553 3.77787,0.16569 1.01619,0.11055 1.80048,0.29834 2.35288,0.56337 0.55224,0.2652 0.93886,0.5745 1.15987,0.9279 0.22085,0.35357 0.33131,0.75124 0.33139,1.19301 z"
         style="fill:#f40000;fill-opacity:1;stroke:none"
         id="path3042"
         inkscape:connector-curvature="0" />
      <path
         d="m 543.598,878.70596 c -3e-5,0.44186 -0.14363,0.83953 -0.43081,1.19301 -0.28723,0.35348 -0.76222,0.64069 -1.42498,0.86162 -0.66281,0.22093 -1.54652,0.39767 -2.65114,0.53023 -1.10466,0.13255 -2.51859,0.19883 -4.24181,0.19883 -1.67907,0 -3.08196,-0.0663 -4.20868,-0.19883 -1.12674,-0.13256 -2.0215,-0.3093 -2.68427,-0.53023 -0.6628,-0.22093 -1.13779,-0.50814 -1.42499,-0.86162 -0.28721,-0.35348 -0.43082,-0.75115 -0.43081,-1.19301 l 0,-80.99216 c -10e-6,-0.44177 0.1436,-0.83944 0.43081,-1.19301 0.2872,-0.3534 0.77324,-0.6406 1.45813,-0.86162 0.68486,-0.22084 1.57962,-0.39758 2.68427,-0.53022 1.10463,-0.13247 2.49647,-0.19875 4.17554,-0.19884 1.72322,9e-5 3.13715,0.0664 4.24181,0.19884 1.10462,0.13264 1.98833,0.30938 2.65114,0.53022 0.66276,0.22102 1.13775,0.50822 1.42498,0.86162 0.28718,0.35357 0.43078,0.75124 0.43081,1.19301 z"
         style="fill:#f40000;fill-opacity:1;stroke:none"
         id="path3044"
         inkscape:connector-curvature="0" />
      <path
         d="m 615.95118,802.48584 c -7e-5,1.28146 -0.0553,2.37505 -0.1657,3.28078 -0.11053,0.90588 -0.27622,1.63494 -0.49708,2.18719 -0.221,0.55239 -0.49716,0.96111 -0.82848,1.22615 -0.33146,0.26518 -0.69599,0.39774 -1.0936,0.39767 l -21.47419,0 0,69.12833 c -4e-5,0.44186 -0.14364,0.83953 -0.43081,1.19301 -0.28724,0.35348 -0.76224,0.64069 -1.42498,0.86162 -0.66282,0.22093 -1.55758,0.39767 -2.68427,0.53023 -1.12677,0.13255 -2.52966,0.19883 -4.20868,0.19883 -1.67908,0 -3.08197,-0.0663 -4.20868,-0.19883 -1.12676,-0.13256 -2.02151,-0.3093 -2.68427,-0.53023 -0.66281,-0.22093 -1.1378,-0.50814 -1.42498,-0.86162 -0.28724,-0.35348 -0.43084,-0.75115 -0.43081,-1.19301 l 0,-69.12833 -21.47419,0 c -0.44186,7e-5 -0.81744,-0.13249 -1.12673,-0.39767 -0.30931,-0.26504 -0.57442,-0.67376 -0.79534,-1.22615 -0.22093,-0.55225 -0.38663,-1.28131 -0.49709,-2.18719 -0.11047,-0.90573 -0.1657,-1.99932 -0.1657,-3.28078 0,-1.32548 0.0552,-2.45221 0.1657,-3.38019 0.11046,-0.92782 0.27616,-1.66792 0.49709,-2.22033 0.22092,-0.55223 0.48603,-0.9499 0.79534,-1.19301 0.30929,-0.24293 0.68487,-0.36444 1.12673,-0.36453 l 60.44586,0 c 0.39761,9e-5 0.76214,0.1216 1.0936,0.36453 0.33132,0.24311 0.60748,0.64078 0.82848,1.19301 0.22086,0.55241 0.38655,1.29251 0.49708,2.22033 0.1104,0.92798 0.16563,2.05471 0.1657,3.38019 z"
         style="fill:#f40000;fill-opacity:1;stroke:none"
         id="path3046"
         inkscape:connector-curvature="0" />
      <path
         d="m 689.58163,874.5967 c 0.53015,1.59069 0.86154,2.84997 0.99417,3.77787 0.13248,0.9279 -0.0443,1.62382 -0.53022,2.08777 -0.48612,0.46394 -1.34774,0.75115 -2.58486,0.86161 -1.23727,0.11047 -2.93841,0.1657 -5.10343,0.1657 -2.25354,0 -4.00991,-0.0331 -5.26913,-0.0994 -1.25936,-0.0663 -2.22039,-0.19883 -2.88311,-0.39767 -0.66285,-0.19883 -1.1268,-0.47499 -1.39185,-0.82848 -0.26517,-0.35348 -0.4861,-0.81743 -0.66278,-1.39184 l -5.76622,-17.23238 -32.21128,0 -5.43483,16.76843 c -0.17676,0.6186 -0.40873,1.13778 -0.69592,1.55754 -0.28722,0.41976 -0.75117,0.75116 -1.39184,0.99418 -0.64071,0.24302 -1.54651,0.40871 -2.71742,0.49708 -1.17093,0.0884 -2.70638,0.13256 -4.60634,0.13256 -2.03255,0 -3.62323,-0.0663 -4.77205,-0.19883 -1.14882,-0.13256 -1.94416,-0.45291 -2.38602,-0.96104 -0.44185,-0.50813 -0.5965,-1.22615 -0.46394,-2.15405 0.13255,-0.92789 0.46394,-2.16509 0.99417,-3.71159 l 26.44507,-76.08755 c 0.26508,-0.75108 0.57438,-1.35863 0.92789,-1.82266 0.35346,-0.46386 0.91682,-0.81735 1.6901,-1.06045 0.77322,-0.24294 1.84472,-0.39759 3.2145,-0.46395 1.36972,-0.0662 3.18133,-0.0993 5.43483,-0.0994 2.6069,9e-5 4.68362,0.0332 6.23016,0.0994 1.54645,0.0664 2.75051,0.22101 3.61217,0.46395 0.86157,0.2431 1.48017,0.60763 1.8558,1.09359 0.37552,0.48613 0.69587,1.14891 0.96103,1.98835 z m -39.36935,-62.89816 -0.0663,0 -12.12894,36.45309 24.32416,0 z"
         style="fill:#f40000;fill-opacity:1;stroke:none"
         id="path3048"
         inkscape:connector-curvature="0" />
    </g>
  </g>
</svg>
